G75*
%MOIN*%
%OFA0B0*%
%FSLAX24Y24*%
%IPPOS*%
%LPD*%
%AMOC8*
5,1,8,0,0,1.08239X$1,22.5*
%
%ADD10C,0.0650*%
%ADD11C,0.0728*%
%ADD12C,0.0740*%
%ADD13C,0.0100*%
%ADD14C,0.0160*%
%ADD15R,0.0436X0.0436*%
D10*
X004598Y003138D02*
X004598Y003787D01*
X008397Y003787D02*
X008397Y003138D01*
D11*
X007492Y003059D02*
X007492Y003787D01*
X006507Y003787D02*
X006507Y003059D01*
X005503Y003059D02*
X005503Y003787D01*
D12*
X003571Y003823D02*
X002831Y003823D01*
X002831Y002823D02*
X003571Y002823D01*
X003571Y001823D02*
X002831Y001823D01*
X002831Y004823D02*
X003571Y004823D01*
X003571Y005823D02*
X002831Y005823D01*
X009426Y005823D02*
X010166Y005823D01*
X010166Y004823D02*
X009426Y004823D01*
X009426Y003823D02*
X010166Y003823D01*
X010166Y002823D02*
X009426Y002823D01*
X009426Y001823D02*
X010166Y001823D01*
D13*
X002312Y001594D02*
X002275Y001684D01*
X002270Y001733D01*
X002270Y006351D01*
X002281Y006543D01*
X002367Y006918D01*
X002533Y007265D01*
X002773Y007566D01*
X003074Y007806D01*
X003421Y007973D01*
X003796Y008058D01*
X003989Y008069D01*
X008864Y008069D01*
X008867Y008068D01*
X008913Y008069D01*
X008921Y008069D01*
X009116Y008064D01*
X009507Y007987D01*
X009871Y007824D01*
X010189Y007585D01*
X010447Y007281D01*
X010630Y006928D01*
X010730Y006542D01*
X010746Y006345D01*
X010746Y001752D01*
X010735Y001699D01*
X010677Y001592D01*
X010583Y001515D01*
X010558Y001508D01*
X010590Y001540D01*
X010666Y001724D01*
X010666Y001923D01*
X010590Y002106D01*
X010449Y002247D01*
X010265Y002323D01*
X009326Y002323D01*
X009142Y002247D01*
X009061Y002166D01*
X009061Y003152D01*
X009023Y003244D01*
X008953Y003315D01*
X008861Y003353D01*
X008852Y003353D01*
X008852Y003878D01*
X008783Y004045D01*
X008655Y004173D01*
X008607Y004193D01*
X008607Y004767D01*
X008620Y004780D01*
X008800Y004960D01*
X008923Y005083D01*
X008923Y006461D01*
X009154Y006692D01*
X009477Y006692D01*
X009553Y006768D01*
X009553Y007312D01*
X009477Y007388D01*
X008933Y007388D01*
X008857Y007312D01*
X008857Y006989D01*
X008503Y006635D01*
X008503Y005257D01*
X008372Y005126D01*
X008372Y007286D01*
X008334Y007378D01*
X008264Y007449D01*
X008172Y007487D01*
X004923Y007487D01*
X004831Y007449D01*
X004761Y007378D01*
X004723Y007286D01*
X004723Y006954D01*
X004140Y006954D01*
X004140Y007016D01*
X004064Y007093D01*
X003520Y007093D01*
X003444Y007016D01*
X003444Y006473D01*
X003520Y006396D01*
X004064Y006396D01*
X004140Y006473D01*
X004140Y006534D01*
X004468Y006534D01*
X004468Y004689D01*
X004591Y004566D01*
X004689Y004468D01*
X007248Y004468D01*
X007282Y004434D01*
X007282Y004235D01*
X007212Y004206D01*
X007073Y004067D01*
X006999Y003890D01*
X006926Y004067D01*
X006787Y004206D01*
X006606Y004281D01*
X006409Y004281D01*
X006227Y004206D01*
X006088Y004067D01*
X006013Y003886D01*
X006013Y003353D01*
X005883Y003353D01*
X005882Y003356D01*
X005756Y003482D01*
X005592Y003550D01*
X005414Y003550D01*
X005250Y003482D01*
X005125Y003356D01*
X005123Y003353D01*
X005053Y003353D01*
X005053Y003878D01*
X004983Y004045D01*
X004855Y004173D01*
X004688Y004242D01*
X004507Y004242D01*
X004340Y004173D01*
X004212Y004045D01*
X004143Y003878D01*
X004143Y003353D01*
X004136Y003353D01*
X004044Y003315D01*
X003973Y003244D01*
X003935Y003152D01*
X003935Y002166D01*
X003854Y002247D01*
X003671Y002323D01*
X002732Y002323D01*
X002548Y002247D01*
X002407Y002106D01*
X002331Y001923D01*
X002331Y001724D01*
X002407Y001540D01*
X002452Y001496D01*
X002381Y001525D01*
X002312Y001594D01*
X002299Y001627D02*
X002371Y001627D01*
X002378Y001528D02*
X002419Y001528D01*
X002331Y001725D02*
X002271Y001725D01*
X002270Y001824D02*
X002331Y001824D01*
X002331Y001922D02*
X002270Y001922D01*
X002270Y002021D02*
X002372Y002021D01*
X002420Y002119D02*
X002270Y002119D01*
X002270Y002218D02*
X002519Y002218D01*
X002715Y002316D02*
X002270Y002316D01*
X002270Y002415D02*
X003935Y002415D01*
X003935Y002513D02*
X002270Y002513D01*
X002270Y002612D02*
X003935Y002612D01*
X003935Y002710D02*
X002270Y002710D01*
X002270Y002809D02*
X003935Y002809D01*
X003935Y002907D02*
X002270Y002907D01*
X002270Y003006D02*
X003935Y003006D01*
X003935Y003104D02*
X002270Y003104D01*
X002270Y003203D02*
X003956Y003203D01*
X004030Y003301D02*
X002270Y003301D01*
X002270Y003400D02*
X002548Y003400D01*
X002548Y003399D02*
X002732Y003323D01*
X003671Y003323D01*
X003854Y003399D01*
X003995Y003540D01*
X004071Y003724D01*
X004071Y003923D01*
X003995Y004106D01*
X003854Y004247D01*
X003671Y004323D01*
X003854Y004399D01*
X003995Y004540D01*
X004071Y004724D01*
X004071Y004923D01*
X003995Y005106D01*
X003854Y005247D01*
X003671Y005323D01*
X003854Y005399D01*
X003995Y005540D01*
X004071Y005724D01*
X004071Y005923D01*
X003995Y006106D01*
X003854Y006247D01*
X003671Y006323D01*
X002732Y006323D01*
X002548Y006247D01*
X002407Y006106D01*
X002331Y005923D01*
X002331Y005724D01*
X002407Y005540D01*
X002548Y005399D01*
X002732Y005323D01*
X003671Y005323D01*
X002732Y005323D01*
X002548Y005247D01*
X002407Y005106D01*
X002331Y004923D01*
X002331Y004724D01*
X002407Y004540D01*
X002548Y004399D01*
X002732Y004323D01*
X003671Y004323D01*
X002732Y004323D01*
X002548Y004247D01*
X002407Y004106D01*
X002331Y003923D01*
X002331Y003724D01*
X002407Y003540D01*
X002548Y003399D01*
X002449Y003498D02*
X002270Y003498D01*
X002270Y003597D02*
X002384Y003597D01*
X002343Y003695D02*
X002270Y003695D01*
X002270Y003794D02*
X002331Y003794D01*
X002331Y003892D02*
X002270Y003892D01*
X002270Y003991D02*
X002359Y003991D01*
X002400Y004089D02*
X002270Y004089D01*
X002270Y004188D02*
X002489Y004188D01*
X002642Y004286D02*
X002270Y004286D01*
X002270Y004385D02*
X002583Y004385D01*
X002464Y004483D02*
X002270Y004483D01*
X002270Y004582D02*
X002390Y004582D01*
X002349Y004680D02*
X002270Y004680D01*
X002270Y004779D02*
X002331Y004779D01*
X002331Y004877D02*
X002270Y004877D01*
X002270Y004976D02*
X002353Y004976D01*
X002394Y005074D02*
X002270Y005074D01*
X002270Y005173D02*
X002474Y005173D01*
X002606Y005271D02*
X002270Y005271D01*
X002270Y005370D02*
X002619Y005370D01*
X002479Y005468D02*
X002270Y005468D01*
X002270Y005567D02*
X002396Y005567D01*
X002355Y005665D02*
X002270Y005665D01*
X002270Y005764D02*
X002331Y005764D01*
X002331Y005862D02*
X002270Y005862D01*
X002270Y005961D02*
X002347Y005961D01*
X002388Y006059D02*
X002270Y006059D01*
X002270Y006158D02*
X002459Y006158D01*
X002570Y006256D02*
X002270Y006256D01*
X002270Y006355D02*
X004468Y006355D01*
X004468Y006453D02*
X004121Y006453D01*
X003832Y006256D02*
X004468Y006256D01*
X004468Y006158D02*
X003944Y006158D01*
X004015Y006059D02*
X004468Y006059D01*
X004468Y005961D02*
X004055Y005961D01*
X004071Y005862D02*
X004468Y005862D01*
X004468Y005764D02*
X004071Y005764D01*
X004047Y005665D02*
X004468Y005665D01*
X004468Y005567D02*
X004006Y005567D01*
X003923Y005468D02*
X004468Y005468D01*
X004468Y005370D02*
X003783Y005370D01*
X003796Y005271D02*
X004468Y005271D01*
X004468Y005173D02*
X003929Y005173D01*
X004008Y005074D02*
X004468Y005074D01*
X004468Y004976D02*
X004049Y004976D01*
X004071Y004877D02*
X004468Y004877D01*
X004468Y004779D02*
X004071Y004779D01*
X004053Y004680D02*
X004476Y004680D01*
X004575Y004582D02*
X004012Y004582D01*
X003938Y004483D02*
X004673Y004483D01*
X004819Y004188D02*
X006209Y004188D01*
X006110Y004089D02*
X004939Y004089D01*
X005006Y003991D02*
X006057Y003991D01*
X006016Y003892D02*
X005047Y003892D01*
X005053Y003794D02*
X006013Y003794D01*
X006013Y003695D02*
X005053Y003695D01*
X005053Y003597D02*
X006013Y003597D01*
X006013Y003498D02*
X005716Y003498D01*
X005838Y003400D02*
X006013Y003400D01*
X005291Y003498D02*
X005053Y003498D01*
X005053Y003400D02*
X005168Y003400D01*
X004376Y004188D02*
X003914Y004188D01*
X004002Y004089D02*
X004257Y004089D01*
X004190Y003991D02*
X004043Y003991D01*
X004071Y003892D02*
X004149Y003892D01*
X004143Y003794D02*
X004071Y003794D01*
X004059Y003695D02*
X004143Y003695D01*
X004143Y003597D02*
X004019Y003597D01*
X003953Y003498D02*
X004143Y003498D01*
X004143Y003400D02*
X003855Y003400D01*
X003760Y004286D02*
X007282Y004286D01*
X007282Y004385D02*
X003819Y004385D01*
X003935Y002316D02*
X003687Y002316D01*
X003884Y002218D02*
X003935Y002218D01*
X006806Y004188D02*
X007193Y004188D01*
X007095Y004089D02*
X006904Y004089D01*
X006958Y003991D02*
X007041Y003991D01*
X006999Y003892D02*
X007000Y003892D01*
X008619Y004188D02*
X009083Y004188D01*
X009142Y004247D02*
X009002Y004106D01*
X008926Y003923D01*
X008926Y003724D01*
X009002Y003540D01*
X009142Y003399D01*
X009326Y003323D01*
X010265Y003323D01*
X010449Y003399D01*
X010590Y003540D01*
X010666Y003724D01*
X010666Y003923D01*
X010590Y004106D01*
X010449Y004247D01*
X010265Y004323D01*
X009326Y004323D01*
X009142Y004247D01*
X009237Y004286D02*
X008607Y004286D01*
X008607Y004385D02*
X009178Y004385D01*
X009142Y004399D02*
X009326Y004323D01*
X010265Y004323D01*
X010449Y004399D01*
X010590Y004540D01*
X010666Y004724D01*
X010666Y004923D01*
X010590Y005106D01*
X010449Y005247D01*
X010265Y005323D01*
X009326Y005323D01*
X009142Y005247D01*
X009002Y005106D01*
X008926Y004923D01*
X008926Y004724D01*
X009002Y004540D01*
X009142Y004399D01*
X009059Y004483D02*
X008607Y004483D01*
X008607Y004582D02*
X008984Y004582D01*
X008944Y004680D02*
X008607Y004680D01*
X008619Y004779D02*
X008926Y004779D01*
X008926Y004877D02*
X008718Y004877D01*
X008620Y004780D02*
X008620Y004780D01*
X008816Y004976D02*
X008948Y004976D01*
X008915Y005074D02*
X008988Y005074D01*
X008923Y005173D02*
X009068Y005173D01*
X009201Y005271D02*
X008923Y005271D01*
X008923Y005370D02*
X009214Y005370D01*
X009142Y005399D02*
X009326Y005323D01*
X010265Y005323D01*
X010449Y005399D01*
X010590Y005540D01*
X010666Y005724D01*
X010666Y005923D01*
X010590Y006106D01*
X010449Y006247D01*
X010265Y006323D01*
X009326Y006323D01*
X009142Y006247D01*
X009002Y006106D01*
X008926Y005923D01*
X008926Y005724D01*
X009002Y005540D01*
X009142Y005399D01*
X009074Y005468D02*
X008923Y005468D01*
X008923Y005567D02*
X008991Y005567D01*
X008950Y005665D02*
X008923Y005665D01*
X008923Y005764D02*
X008926Y005764D01*
X008923Y005862D02*
X008926Y005862D01*
X008923Y005961D02*
X008941Y005961D01*
X008923Y006059D02*
X008982Y006059D01*
X008923Y006158D02*
X009053Y006158D01*
X009165Y006256D02*
X008923Y006256D01*
X008923Y006355D02*
X010746Y006355D01*
X010737Y006453D02*
X008923Y006453D01*
X009014Y006552D02*
X010727Y006552D01*
X010702Y006650D02*
X009113Y006650D01*
X008814Y006946D02*
X008372Y006946D01*
X008372Y007044D02*
X008857Y007044D01*
X008857Y007143D02*
X008372Y007143D01*
X008372Y007241D02*
X008857Y007241D01*
X008885Y007340D02*
X008350Y007340D01*
X008274Y007438D02*
X010314Y007438D01*
X010397Y007340D02*
X009525Y007340D01*
X009553Y007241D02*
X010467Y007241D01*
X010518Y007143D02*
X009553Y007143D01*
X009553Y007044D02*
X010569Y007044D01*
X010620Y006946D02*
X009553Y006946D01*
X009553Y006847D02*
X010651Y006847D01*
X010676Y006749D02*
X009534Y006749D01*
X008716Y006847D02*
X008372Y006847D01*
X008372Y006749D02*
X008617Y006749D01*
X008519Y006650D02*
X008372Y006650D01*
X008372Y006552D02*
X008503Y006552D01*
X008503Y006453D02*
X008372Y006453D01*
X008372Y006355D02*
X008503Y006355D01*
X008503Y006256D02*
X008372Y006256D01*
X008372Y006158D02*
X008503Y006158D01*
X008503Y006059D02*
X008372Y006059D01*
X008372Y005961D02*
X008503Y005961D01*
X008503Y005862D02*
X008372Y005862D01*
X008372Y005764D02*
X008503Y005764D01*
X008503Y005665D02*
X008372Y005665D01*
X008372Y005567D02*
X008503Y005567D01*
X008503Y005468D02*
X008372Y005468D01*
X008372Y005370D02*
X008503Y005370D01*
X008503Y005271D02*
X008372Y005271D01*
X008372Y005173D02*
X008419Y005173D01*
X008738Y004089D02*
X008995Y004089D01*
X008954Y003991D02*
X008805Y003991D01*
X008846Y003892D02*
X008926Y003892D01*
X008926Y003794D02*
X008852Y003794D01*
X008852Y003695D02*
X008937Y003695D01*
X008978Y003597D02*
X008852Y003597D01*
X008852Y003498D02*
X009044Y003498D01*
X009142Y003400D02*
X008852Y003400D01*
X008966Y003301D02*
X010746Y003301D01*
X010746Y003203D02*
X009041Y003203D01*
X009061Y003104D02*
X010746Y003104D01*
X010746Y003006D02*
X009061Y003006D01*
X009061Y002907D02*
X010746Y002907D01*
X010746Y002809D02*
X009061Y002809D01*
X009061Y002710D02*
X010746Y002710D01*
X010746Y002612D02*
X009061Y002612D01*
X009061Y002513D02*
X010746Y002513D01*
X010746Y002415D02*
X009061Y002415D01*
X009061Y002316D02*
X009309Y002316D01*
X009113Y002218D02*
X009061Y002218D01*
X010282Y002316D02*
X010746Y002316D01*
X010746Y002218D02*
X010478Y002218D01*
X010577Y002119D02*
X010746Y002119D01*
X010746Y002021D02*
X010625Y002021D01*
X010666Y001922D02*
X010746Y001922D01*
X010746Y001824D02*
X010666Y001824D01*
X010666Y001725D02*
X010741Y001725D01*
X010696Y001627D02*
X010625Y001627D01*
X010599Y001528D02*
X010578Y001528D01*
X010449Y003400D02*
X010746Y003400D01*
X010746Y003498D02*
X010548Y003498D01*
X010613Y003597D02*
X010746Y003597D01*
X010746Y003695D02*
X010654Y003695D01*
X010666Y003794D02*
X010746Y003794D01*
X010746Y003892D02*
X010666Y003892D01*
X010637Y003991D02*
X010746Y003991D01*
X010746Y004089D02*
X010597Y004089D01*
X010508Y004188D02*
X010746Y004188D01*
X010746Y004286D02*
X010354Y004286D01*
X010414Y004385D02*
X010746Y004385D01*
X010746Y004483D02*
X010533Y004483D01*
X010607Y004582D02*
X010746Y004582D01*
X010746Y004680D02*
X010648Y004680D01*
X010666Y004779D02*
X010746Y004779D01*
X010746Y004877D02*
X010666Y004877D01*
X010644Y004976D02*
X010746Y004976D01*
X010746Y005074D02*
X010603Y005074D01*
X010523Y005173D02*
X010746Y005173D01*
X010746Y005271D02*
X010391Y005271D01*
X010377Y005370D02*
X010746Y005370D01*
X010746Y005468D02*
X010518Y005468D01*
X010601Y005567D02*
X010746Y005567D01*
X010746Y005665D02*
X010641Y005665D01*
X010666Y005764D02*
X010746Y005764D01*
X010746Y005862D02*
X010666Y005862D01*
X010650Y005961D02*
X010746Y005961D01*
X010746Y006059D02*
X010609Y006059D01*
X010538Y006158D02*
X010746Y006158D01*
X010746Y006256D02*
X010427Y006256D01*
X010230Y007537D02*
X002750Y007537D01*
X002672Y007438D02*
X004821Y007438D01*
X004745Y007340D02*
X002593Y007340D01*
X002522Y007241D02*
X004723Y007241D01*
X004723Y007143D02*
X002475Y007143D01*
X002427Y007044D02*
X003471Y007044D01*
X003444Y006946D02*
X002380Y006946D01*
X002367Y006918D02*
X002367Y006918D01*
X002350Y006847D02*
X003444Y006847D01*
X003444Y006749D02*
X002328Y006749D01*
X002305Y006650D02*
X003444Y006650D01*
X003444Y006552D02*
X002283Y006552D01*
X002276Y006453D02*
X003463Y006453D01*
X004112Y007044D02*
X004723Y007044D01*
X003668Y008029D02*
X009292Y008029D01*
X009633Y007931D02*
X003334Y007931D01*
X003129Y007832D02*
X009853Y007832D01*
X009992Y007734D02*
X002984Y007734D01*
X002860Y007635D02*
X010123Y007635D01*
D14*
X009205Y007040D02*
X008713Y006548D01*
X008713Y005170D01*
X008410Y004867D01*
X008397Y004836D02*
X008397Y003787D01*
X007492Y003787D02*
X007492Y004521D01*
X007335Y004678D01*
X004776Y004678D01*
X004678Y004776D01*
X004678Y006744D01*
X003792Y006744D01*
X008410Y004867D02*
X008403Y004858D01*
X008398Y004847D01*
X008397Y004836D01*
D15*
X009205Y007040D03*
X003792Y006744D03*
M02*
