%
M48
M72
T01C0.0236
T02C0.0394
T03C0.0440
%
T01
X3792Y6744
X9205Y7040
T02
X8397Y3787
X8397Y3103
X7492Y3103
X7492Y3787
X6507Y3787
X6507Y3103
X5503Y3103
X5503Y3787
X4598Y3787
X4598Y3103
T03
X3201Y1823
X3201Y2823
X3201Y3823
X3201Y4823
X3201Y5823
X9796Y5823
X9796Y4823
X9796Y3823
X9796Y2823
X9796Y1823
M30
